<svg id="Capa_1" data-name="Capa 1" xmlns="http://www.w3.org/2000/svg" viewBox="0 0 58 58.02"><title>IC</title><path d="M43.15,58H14.84c-.59-.1-1.19-.16-1.78-.29Q3.21,55.51.47,45.78c-.23-.84-.32-1.73-.47-2.6V14.87c0-.2.06-.41.11-.61a26.88,26.88,0,0,1,1.22-4.5C4.22,3.5,9.18.16,16.08.06,24.69-.06,33.3,0,41.9,0a15.4,15.4,0,0,1,9.15,2.84A15.77,15.77,0,0,1,58,16.35Q58,29,58,41.71A15.39,15.39,0,0,1,57.69,45c-1.45,6.57-5.45,10.77-11.93,12.57C44.91,57.78,44,57.86,43.15,58ZM29,5.18H16.41a11.21,11.21,0,0,0-3.89.59A10.82,10.82,0,0,0,5.15,16.34c0,8.46,0,16.91,0,25.36a12,12,0,0,0,.59,3.78A10.71,10.71,0,0,0,16.3,52.87c8.45,0,16.91,0,25.36,0a12.33,12.33,0,0,0,3.78-.58,10.67,10.67,0,0,0,7.4-10.48q0-12.76,0-25.53a10.69,10.69,0,0,0-4.63-9.1,10.93,10.93,0,0,0-6.6-2Z"/><path d="M43.94,29.06A14.95,14.95,0,1,1,29,14.08,15,15,0,0,1,43.94,29.06ZM29,19.24A9.79,9.79,0,1,0,38.78,29,9.8,9.8,0,0,0,29,19.24Z"/><path d="M44.59,17.26a3.76,3.76,0,1,1,3.75-3.76A3.8,3.8,0,0,1,44.59,17.26Z"/></svg>