<svg id="Capa_1" data-name="Capa 1" xmlns="http://www.w3.org/2000/svg" viewBox="0 0 57.29 57.28"><title>IC</title><path d="M0,57.28c.21-.61.4-1.18.59-1.76Q2.8,49,5,42.52a.52.52,0,0,0,0-.37A27.63,27.63,0,0,1,1.11,25.88a27,27,0,0,1,5-14A27.76,27.76,0,0,1,23,.67,27,27,0,0,1,28.68,0,27.66,27.66,0,0,1,44.47,4.49,27.57,27.57,0,0,1,56.34,20.67a26.52,26.52,0,0,1,.95,6.76,27.1,27.1,0,0,1-3,13,28.15,28.15,0,0,1-27.4,15.26,28.2,28.2,0,0,1-11.16-3.28.45.45,0,0,0-.34,0L1.63,56.78l-1.38.44Zm7.07-6.91.17,0,8.62-2.74a.52.52,0,0,1,.51,0,23.81,23.81,0,0,0,17.54,3.28,23.06,23.06,0,0,0,12.55-7,22.53,22.53,0,0,0,5.92-20.34C50.94,16,46.57,10.45,39.74,6.93a22.86,22.86,0,0,0-11.4-2.48,23.62,23.62,0,0,0-17,8A22.87,22.87,0,0,0,5.66,25.3a22.61,22.61,0,0,0,.28,7.06,23.11,23.11,0,0,0,4,9.15.34.34,0,0,1,0,.36C9.23,44,8.51,46.12,7.78,48.25,7.55,48.94,7.32,49.64,7.07,50.37Z"/><path d="M36.91,41.08a9.71,9.71,0,0,1-2.85-.53,36,36,0,0,1-5.77-2.22A22.67,22.67,0,0,1,23,34.49a35.53,35.53,0,0,1-4.68-5.56,19.07,19.07,0,0,1-2.26-4A8.41,8.41,0,0,1,15.89,19,7.63,7.63,0,0,1,18,15.92a3.14,3.14,0,0,1,1.68-.72c.43-.08.87-.11,1.31-.16a1.23,1.23,0,0,1,1.23.61,8.86,8.86,0,0,1,.44.87l2.13,5.06a1.31,1.31,0,0,1,0,1.11,9.59,9.59,0,0,1-1.85,2.44.9.9,0,0,0-.14,1.26,18.54,18.54,0,0,0,7.46,7.23c.7.36,1.42.68,2.15,1a.93.93,0,0,0,1.27-.3c.74-.89,1.48-1.8,2.2-2.71A.91.91,0,0,1,37,31.2c.68.25,1.35.54,2,.85,1.29.6,2.56,1.24,3.85,1.85A1,1,0,0,1,43.47,35a7,7,0,0,1-.61,2.86,3.51,3.51,0,0,1-.78,1,7.41,7.41,0,0,1-3.39,1.92C38,40.93,37.35,41,36.91,41.08Z"/></svg>