<svg id="Capa_1" data-name="Capa 1" xmlns="http://www.w3.org/2000/svg" viewBox="0 0 61.69 49.33"><title>IC</title><path d="M30.88,49.33q-10.36,0-20.74,0C3.72,49.31,0,45.62,0,39.24Q0,24.42,0,9.61C0,4.07,3.79.07,9.32.05Q30.89,0,52.46.05c5.44,0,9.23,4,9.23,9.48q0,14.9,0,29.8c0,6.27-3.72,10-10,10Q41.25,49.35,30.88,49.33ZM6.19,15c0,.89-.09,1.42-.09,2V39c0,3.19,1.05,4.23,4.26,4.23h41c3.19,0,4.23-1,4.23-4.25V16.94c0-.52-.05-1.05-.1-1.88-.69.44-1.18.75-1.66,1.07C46.94,20.72,40,25.29,33.17,29.92a3.64,3.64,0,0,1-4.67,0c-2.23-1.59-4.55-3-6.84-4.57Zm49-7.17a3.53,3.53,0,0,0-3.47-1.75H9.8c-1.38,0-2.57.3-3.23,1.79L30.85,24.07Z"/></svg>